PathFileType	4	(X/Y/Z)	61_2_46_p0_0-1457_filt_butterworth.trc
DataRate	CameraRate	NumFrames	NumMarkers	Units	OrigDataRate	OrigDataStartFrame	OrigNumFrames
59.0	59.0	6	27	m	59.0	364	1457
Frame#	Time	RHip			RKnee			RAnkle			RBigToe			RSmallToe			RHeel			LHip			LKnee			LAnkle			LBigToe			LSmallToe			LHeel			Neck			Head			Nose			RShoulder			RElbow			RWrist			RThumb			RIndex			RPinky			LShoulder			LElbow			LWrist			LThumb			LIndex			LPinky			
		X1	Y1	Z1	X2	Y2	Z2	X3	Y3	Z3	X4	Y4	Z4	X5	Y5	Z5	X6	Y6	Z6	X7	Y7	Z7	X8	Y8	Z8	X9	Y9	Z9	X10	Y10	Z10	X11	Y11	Z11	X12	Y12	Z12	X13	Y13	Z13	X14	Y14	Z14	X15	Y15	Z15	X16	Y16	Z16	X17	Y17	Z17	X18	Y18	Z18	X19	Y19	Z19	X20	Y20	Z20	X21	Y21	Z21	X22	Y22	Z22	X23	Y23	Z23	X24	Y24	Z24	X25	Y25	Z25	X26	Y26	Z26	X27	Y27	Z27	
364	6.169491525423729	0.312740708529324	0.6467388890650503	0.9711765264475112	0.3273972008285235	0.778272757285076	1.3912679722116768	0.32363991194680997	0.8734475682298951	1.7838463518588688	0.31007649235850987	0.7446938316958946	1.8274600521176037	0.3679680069472961	0.7331102745640518	1.8067033586595613	0.31148455130725683	0.8806655779628545	1.8070460268820128	0.11025240331703244	0.6350466099919096	0.9816719636507674	0.09775357968560108	0.7460043934449139	1.406109514597081	0.11469144994534329	0.8492325774696158	1.7923993368663766	0.18992127352354432	0.7358850997601335	1.8377169994911295	0.0991559968332628	0.7455196603784997	1.833303444787476	0.11463830819185944	0.8899676221183078	1.8202087290140039	0.1792068051492275	0.48127188779985697	0.43976054693055433	0.22127936953935312	0.38240474743426267	0.2129675993101983	0.26300116484401653	0.3343242429942147	0.345588971153471	0.33215657910047164	0.5016772026442329	0.4921088226131118	0.4051197868686526	0.5824146026695357	0.7183514908134169	0.5123653444746152	0.4246502850274738	0.6252509045036297	0.5650923240517964	0.34700806049748945	0.5421835553936332	0.5796906937762966	0.37691346788843744	0.5490787928368448	0.5617975650412474	0.39524326897308387	0.5961893349745847	0.03464464755063627	0.46564283937433304	0.5172108540217621	-0.013549861037134365	0.5453489785545683	0.758170231357652	0.11185415954790075	0.4071300050586032	0.8760867802862592	0.19630965706877876	0.3571841781644985	0.9514710855083734	0.19674387256321343	0.33803174461387686	0.9546598976450136	0.1508526325563765	0.3456889874430042	0.9675835493655118
365	6.186440677966102	0.3127358048130927	0.6466059111740857	0.9710935772227479	0.3274431395806824	0.7786959556306072	1.3913093164732473	0.32361434356317526	0.8731232757257894	1.7836881221680634	0.31042963156176573	0.7454221457493234	1.8275680729883998	0.3686389697549007	0.7338907179562572	1.8064141301226706	0.31145479698872097	0.8806489460645361	1.807882638201776	0.11004951059563328	0.6336544540882032	0.9816551854492337	0.09792870997149992	0.7456614347125528	1.4060254965104593	0.11485214737438129	0.8488543597891359	1.7933451731860943	0.1898855133836316	0.7359180730565424	1.8377130464467175	0.09923929545314465	0.7453464233090756	1.8331799786041423	0.11466638422301278	0.8899783722215191	1.8202125722951283	0.1792090124084746	0.4812765606471763	0.43975005407555234	0.22120469085470454	0.38249515248060856	0.21203156587593505	0.2629482882041362	0.3341293784300271	0.3446155876163851	0.33381150612080324	0.4971352656614348	0.4923617140669311	0.4047292470770085	0.5779761211164302	0.7171252325328927	0.5126940973219503	0.4239449852113385	0.6252022403448775	0.5652888683527365	0.3538383864894171	0.5430862766580974	0.5803339205079181	0.37723856503856806	0.5491176607709833	0.5623820116824694	0.39343448489015875	0.5961860528788634	0.034652711489512156	0.46562035770932575	0.5172142882646683	-0.013326263212897801	0.5449559820749815	0.7592492808294784	0.11000231388753588	0.4100219949632112	0.8764471063156694	0.19440332485193723	0.357685035469334	0.9520450265982783	0.19521147680194	0.34122302049980374	0.9554595716255787	0.15000834906245597	0.34526370324218886	0.9688297155824014
366	6.203389830508475	0.3127271743802829	0.646463681104607	0.9710201094898103	0.3274518951453731	0.7788272908106432	1.3913169854349328	0.32360305595566446	0.8730130606751727	1.7837581876328013	0.311668374630073	0.7458291085472333	1.8288387526103598	0.36996629081995136	0.7344824459001047	1.8068648225206594	0.3114276513883477	0.8806374914330973	1.8083541646173376	0.10878180366842112	0.6294004710118728	0.9816195828749326	0.09817588663086203	0.7452931497216133	1.4060375279573	0.11493348954017132	0.8485799744614824	1.7937478668082971	0.1898575663158986	0.7359425653943819	1.837713206636534	0.09947599689740032	0.7450834502748349	1.8329505395952932	0.11469544432769277	0.8900186791847337	1.8202049595784582	0.17921011930696773	0.48127402639411626	0.43974331418939144	0.2210883671586592	0.3824174807580879	0.21079784298633134	0.2629208015268195	0.33373138643632444	0.3438752319028451	0.33505127496074744	0.493714539518997	0.4925346466751806	0.4039267047052741	0.5783347050487293	0.7157274447104042	0.5127910979961006	0.4242606608812798	0.625535957977839	0.5655875665411495	0.35921805691216857	0.5441294986375562	0.5804607230491172	0.3774177957114178	0.5492493045103816	0.5633194774153665	0.39137772872244403	0.5963149268314323	0.03462064029559759	0.465607216219062	0.5171987228724332	-0.013112162621024387	0.544531975508481	0.7593805894636223	0.10941213638084107	0.41119611437982984	0.8766052198276403	0.19354403928315925	0.35804243984840084	0.9522398864794344	0.1940042177226167	0.34271663742085035	0.9566741913345932	0.14834083958817285	0.3448314508664822	0.9699894237415936
367	6.220338983050848	0.3126962077997778	0.6463604820176498	0.9709654321576844	0.3274481160348318	0.7787960468015112	1.3912695932797778	0.32359496732740967	0.8730658111703371	1.7843529517812877	0.3133619445431506	0.7458956343290862	1.8304977133840952	0.3714695321856389	0.7354140799765604	1.8084277855878523	0.3114475942373142	0.8805863542886313	1.8079458723813755	0.1068735495927615	0.6237493073387893	0.9815762220718467	0.09847153308530968	0.7448763747389333	1.405948665125209	0.11495710452337467	0.848490019433825	1.7937844869339723	0.18983589696706799	0.7359596295573546	1.837728433678018	0.099754344771681	0.7448051891454993	1.832923818040125	0.11471271107793436	0.8900669480030476	1.8201933502658312	0.1792143324103397	0.4812659516333655	0.4397379657069503	0.22098898752128335	0.3822928167165685	0.209834288293402	0.2628831768883694	0.3331626793185708	0.34358594972127066	0.33552167896016866	0.4924026666423394	0.4925923216943445	0.4029452211105144	0.5809447484576307	0.7148392108740557	0.5129230164747134	0.4248180145396204	0.6263843086364941	0.5658878716736082	0.3608414761960429	0.545022236594392	0.5804153330347062	0.37742770174660467	0.5493549619400537	0.5643291317422268	0.3880674182855831	0.5968165369056863	0.03457364486537014	0.4656084783934562	0.5171657812376458	-0.013036890729111853	0.5443772939456091	0.758543215412188	0.1094543124588479	0.41124387824691366	0.8766473042833288	0.1932107707365953	0.35792923457891124	0.9522924860141323	0.1922999657048075	0.3430405736148629	0.9582276519135658	0.14595719253020606	0.34477589292836297	0.9708702975592857
368	6.237288135593221	0.3126459347307623	0.6463074493644624	0.9709826980014098	0.3274442503567142	0.7787158679705731	1.391195183045819	0.32362384513181197	0.8732256681981454	1.7855384369875753	0.3146941062304865	0.7457808166251529	1.8316629507978428	0.3724622488243174	0.7369492925276216	1.8105090925927347	0.31154064671896453	0.8804499755609613	1.80713911718065	0.105350093921725	0.6196040321861691	0.981550394285794	0.09867158226703171	0.7445854521668711	1.4055489350572958	0.11495615114330941	0.8484964368258899	1.7937228302238788	0.18983478276752408	0.7359680212603286	1.837781473385319	0.09989686098860197	0.7446395909591164	1.8333648778506952	0.1147149965441843	0.890092406788792	1.8201933676858106	0.1792170977696638	0.48125884621105297	0.4397346730647834	0.22093340671165376	0.38220562507069933	0.20946039933403465	0.26283999963541543	0.33270825537686	0.3435829600831266	0.3355200790573966	0.492417319466958	0.49257367532055285	0.4023286258415096	0.5828336537924131	0.7146036462684566	0.5131508238528559	0.42503726091352617	0.6274736777695702	0.5660677415975405	0.35999305752033045	0.5455589900737828	0.5803745573542758	0.377349337736487	0.5493905945557103	0.5646088574639612	0.3835009609801747	0.5978954201084989	0.034542128310861946	0.4656136362873445	0.5171262510955525	-0.013592226110920216	0.5455212685208572	0.7573624697028063	0.10958141986910697	0.41107456060136305	0.8766702319738517	0.19270949728185896	0.35731627409698447	0.9523440000426393	0.18970568471064453	0.3429887731762942	0.9596957860277537	0.14328108593826266	0.34507866328676784	0.9714891688126616
369	6.254237288135593	0.3125861511479371	0.646297703156497	0.9710826319063995	0.3274415961068222	0.778650300474877	1.3911318079991417	0.32380864480286864	0.8732005357035897	1.7865444886408794	0.31530285695583504	0.7457181484858689	1.8320902213290229	0.37273550476295264	0.7384709650123734	1.8121887475983085	0.3116587752566048	0.8802267000530816	1.806628267572898	0.10470087963338802	0.6181851226580295	0.9815559967008771	0.09865647016688046	0.7445973169587272	1.4049321223154856	0.11494820908191565	0.8485123712803739	1.7936799684615092	0.18989717988905336	0.735949074023013	1.837864086096746	0.09983642657990598	0.744708668231084	1.8341415249779656	0.11470790740110157	0.8900925892214464	1.8202155130172237	0.17920039756105638	0.48126127288988574	0.43973582090167046	0.2209210279912443	0.38216808917587797	0.20967494376715978	0.2628090707658959	0.33251417093384517	0.34365546371468025	0.3354192831718896	0.4927294987696922	0.4925204458118174	0.4021481891657999	0.5834443842308235	0.7146623927021765	0.5132539193682893	0.4252167796425299	0.6282832887499642	0.5661089614138429	0.3585796404971372	0.5458097515469481	0.5803617607718056	0.377271856172456	0.5493946135518223	0.5640500864214089	0.3791593393373728	0.5992096859009309	0.03452879919156993	0.4656074636570619	0.5170945479513291	-0.015212304554904969	0.5488622815132933	0.7566628834088551	0.10962984566249008	0.4111301752910274	0.8767089590285965	0.19171871029119542	0.3566932451727126	0.9524594531358439	0.18696178750820872	0.3429020278086473	0.9606808307297134	0.1407529760367991	0.3453876693827071	0.9718087295614837
